<svg width="160" height="138" viewBox="0 0 160 138" fill="none" xmlns="http://www.w3.org/2000/svg">
<path d="M61.7125 0C61.7125 0 60.6364 102.984 61.7125 111.114C62.7887 119.244 65.9885 123.706 71.1881 129.384H30.3906C34.6806 124.888 36.4869 119.645 37.6385 111.333C38.7901 103.021 37.6385 0 37.6385 0H61.7125Z" fill="white"/>
<path d="M23.1151 0.241211C23.1151 0.241211 15.2276 2.68478 11.1124 5.82351C8.28614 7.9791 6.83124 9.4568 4.75999 12.3534C2.18809 15.9502 0 22.6393 0 22.6393V0.241211H23.1151Z" fill="white"/>
<path d="M99.9297 22.6393C99.9297 22.6393 97.4079 14.9965 94.1687 11.0089C91.9441 8.27034 90.4191 6.86057 87.4298 4.85356C83.7179 2.36143 76.8146 0.241211 76.8146 0.241211L99.9297 0.241211V22.6393Z" fill="white"/>
<path d="M111.796 68.3149L133.591 71.4581C152.808 76.2224 161.738 89.2104 159.72 108.841C157.303 132.168 129.416 138.039 109.798 137.999C133.487 121.601 139.281 81.3669 107.801 68.3149C135.437 60.0425 127.824 19.142 108.8 6.55762C127.278 7.15068 152.189 9.70084 155.485 32.0197C159.54 59.5969 134.829 68.3544 111.796 68.3149Z" fill="#F75835"/>
<path d="M86.7637 128.858C85.3253 130.479 78.6531 121.406 77.9539 120.279C73.2394 112.707 69.8234 102.111 76.7953 94.7772C89.5404 81.3345 108.978 100.589 97.1516 112.945C91.8577 118.48 84.0868 115.613 86.7637 128.858Z" fill="#F75835"/>
<path d="M86.7637 15.6279C85.3253 14.0069 78.6531 23.0807 77.9539 24.2075C73.2394 31.7789 69.8234 42.3749 76.7953 49.7091C89.5404 63.1518 108.978 43.8971 97.1516 31.5417C91.8577 26.0065 84.0868 28.8729 86.7637 15.6279Z" fill="#F75835"/>
</svg>
