<svg width="1512" height="362" viewBox="0 0 1512 362" fill="none" xmlns="http://www.w3.org/2000/svg">
<path d="M174.627 30.9697C174.627 30.9697 174.629 299.697 174.627 310.69C174.624 330.472 191.536 339.659 206.186 350.999H77.3203C89.5051 339.681 106.246 331.057 106.249 311.241C106.251 300.798 106.249 30.9697 106.249 30.9697H174.627Z" fill="#3B128D"/>
<path d="M977.115 0V320.739C977.115 341.316 996.285 344.156 1005.15 351H918.487V73.8046C918.487 55.1788 916.854 38.4657 886.598 33.6577C919.324 28.8493 949.076 19.3674 977.115 0Z" fill="#3B128D"/>
<path d="M367.289 126.453V299.827C367.289 325.592 382.39 337.885 397.489 350.177H279.207C296.824 335.426 307.798 320.58 309.507 299.827C311.369 276.52 312.275 198.34 304.021 179.655C298.167 166.238 289.274 160.872 276.74 155.955C309.96 156.447 337.794 137.762 367.34 126.453H367.289Z" fill="#3B128D"/>
<path d="M644.539 118.362C668.437 123.303 675.833 130.567 683.581 136.842C731.629 175.529 702.699 258.438 711.806 311.701C714.724 328.797 724.686 334.578 741.389 332.058C718.849 365.261 660.437 349.5 653.947 311.701C646.199 266.689 657.972 203.89 653.444 156.556C652.186 143.611 650.828 135.656 635.483 127.256C628.261 123.303 600.516 118.362 600.516 118.362C618.125 115.892 631.206 116.485 644.539 118.362Z" fill="#3B128D"/>
<path d="M864.845 124.069C857.299 128.885 851.512 133.116 847.185 138.076C816.696 173.191 816.243 262.876 830.28 304.556C836.016 321.53 848.544 342.979 867.31 347.794C867.31 347.794 867.917 350.542 860.971 350.274C814.332 348.475 772.975 313.116 762.812 270.025C745.555 196.585 783.339 129.273 864.744 124.069H864.845Z" fill="#3B128D"/>
<path d="M603.775 213.996C562.126 251.927 555.506 319.534 608.847 345.53C457.256 378.699 480.687 223.728 603.775 213.996Z" fill="#3B128D"/>
<path d="M1134.35 123.046C1093.3 160.836 1086.45 224.549 1107.99 273.768C1129.52 322.987 1171.43 332.569 1222.4 320.021C1169.52 370.31 1079.01 354.357 1041.78 294C997.955 222.944 1048.02 125.721 1134.35 123.046Z" fill="#3B128D"/>
<path d="M1382.61 175.232L1440.95 183.625C1492.39 196.347 1516.29 231.029 1510.89 283.447C1504.42 345.736 1429.77 361.414 1377.27 361.309C1440.67 317.521 1456.18 210.085 1371.92 175.232C1445.89 153.142 1425.51 43.927 1374.59 10.3232C1424.05 11.9069 1490.73 18.7165 1499.55 78.3138C1510.41 151.953 1444.27 175.338 1382.61 175.232Z" fill="#F75835"/>
<path d="M1315.64 336.906C1311.79 341.235 1293.93 317.005 1292.06 313.996C1279.44 293.778 1270.3 265.484 1288.96 245.9C1323.07 210.004 1375.1 261.42 1343.45 294.412C1329.28 309.192 1308.48 301.538 1315.64 336.906Z" fill="#F75835"/>
<path d="M1315.64 34.5501C1311.79 30.2215 1293.93 54.451 1292.06 57.4599C1279.44 77.6776 1270.3 105.972 1288.96 125.556C1323.07 161.452 1375.1 110.037 1343.45 77.0442C1329.28 62.2637 1308.48 69.9178 1315.64 34.5501Z" fill="#F75835"/>
<path d="M65.4056 30.9697C65.4056 30.9697 43.0875 37.8675 31.4432 46.7277C23.4462 52.8126 19.3295 56.9839 13.4687 65.1606C6.19134 75.3137 0 94.1961 0 94.1961V30.9697H65.4056Z" fill="#3B128D"/>
<path d="M282.75 94.1961C282.75 94.1961 275.614 72.6216 266.449 61.3653C260.154 53.6347 255.839 49.6552 247.381 43.9897C236.878 36.9548 217.344 30.9697 217.344 30.9697L282.75 30.9697V94.1961Z" fill="#3B128D"/>
<path d="M553.053 206.188C535.651 208.888 515.835 196.01 513.88 178.425C510.199 146.258 546.966 124.642 576.237 123.215C558.398 146.491 570.538 145.368 577.552 162.851C584.967 181.26 572.963 203.1 553.053 206.188Z" fill="#3B128D"/>
<path d="M472.518 165.834C487.238 156.389 492.968 133.853 482.252 119.58C462.728 93.4033 420.626 101.607 398.022 119.795C427.291 125.259 417.548 132.409 424.458 149.933C431.711 168.403 455.678 176.641 472.518 165.834Z" fill="#3B128D"/>
<path d="M1190.72 232.279C1206.19 237.441 1224.23 230 1231.96 221.956C1239.69 213.912 1241.79 204.215 1242.35 195.001C1244.94 152.272 1197.91 124.224 1160.05 123.37C1183.92 152.831 1199.27 157.09 1184.99 167.21C1162.37 183.243 1156.99 221.021 1190.72 232.279Z" fill="#3B128D"/>
</svg>
