<svg width="1500" height="357" viewBox="0 0 1500 357" fill="none" xmlns="http://www.w3.org/2000/svg">
<path d="M174.627 30.9707C174.627 30.9707 174.629 299.698 174.627 310.691C174.624 330.473 191.536 339.66 206.186 351H77.3203C89.5051 339.682 106.246 331.058 106.249 311.242C106.251 300.799 106.249 30.9707 106.249 30.9707H174.627Z" fill="white"/>
<path d="M977.115 0V320.739C977.115 341.316 996.285 344.156 1005.15 351H918.487V73.8046C918.487 55.1788 916.854 38.4657 886.598 33.6577C919.324 28.8493 949.076 19.3674 977.115 0Z" fill="white"/>
<path d="M367.287 126.453V299.827C367.287 325.592 382.388 337.885 397.487 350.177H279.205C296.822 335.426 307.796 320.58 309.505 299.827C311.367 276.52 312.273 198.34 304.019 179.655C298.165 166.238 289.272 160.872 276.738 155.955C309.958 156.447 337.792 137.762 367.338 126.453H367.287Z" fill="white"/>
<path d="M644.539 118.362C668.437 123.303 675.833 130.567 683.581 136.842C731.629 175.529 702.699 258.438 711.806 311.701C714.724 328.797 724.686 334.578 741.389 332.058C718.849 365.261 660.437 349.5 653.947 311.701C646.199 266.689 657.972 203.89 653.444 156.556C652.186 143.611 650.828 135.656 635.483 127.256C628.261 123.303 600.516 118.362 600.516 118.362C618.125 115.892 631.206 116.485 644.539 118.362Z" fill="white"/>
<path d="M864.847 124.069C857.301 128.885 851.514 133.116 847.187 138.076C816.698 173.191 816.245 262.876 830.282 304.556C836.018 321.53 848.546 342.979 867.312 347.794C867.312 347.794 867.919 350.542 860.973 350.274C814.334 348.475 772.977 313.116 762.814 270.025C745.557 196.585 783.341 129.273 864.746 124.069H864.847Z" fill="white"/>
<path d="M603.771 213.996C562.122 251.927 555.502 319.534 608.843 345.53C457.252 378.699 480.683 223.728 603.771 213.996Z" fill="white"/>
<path d="M1134.35 123.045C1093.29 160.835 1086.45 224.548 1107.99 273.767C1129.52 322.986 1171.43 332.568 1222.4 320.02C1169.52 370.309 1079.01 354.356 1041.78 293.999C997.953 222.943 1048.01 125.72 1134.35 123.045Z" fill="white"/>
<path d="M1368.71 170.071L1427.05 178.464C1478.48 191.186 1502.39 225.868 1496.98 278.286C1490.51 340.575 1415.87 356.253 1363.36 356.148C1426.77 312.359 1442.28 204.923 1358.02 170.071C1431.99 147.981 1411.61 38.7659 1360.69 5.16211C1410.15 6.74574 1476.83 13.5554 1485.65 73.1527C1496.5 146.792 1430.36 170.176 1368.71 170.071Z" fill="white"/>
<path d="M1301.74 331.744C1297.89 336.072 1280.03 311.843 1278.15 308.834C1265.54 288.616 1256.39 260.322 1275.05 240.738C1309.17 204.842 1361.19 256.257 1329.54 289.25C1315.37 304.03 1294.57 296.376 1301.74 331.744Z" fill="white"/>
<path d="M1301.74 29.387C1297.89 25.0584 1280.03 49.288 1278.15 52.2969C1265.54 72.5145 1256.39 100.809 1275.05 120.393C1309.17 156.289 1361.19 104.873 1329.54 71.8811C1315.37 57.1006 1294.57 64.7548 1301.74 29.387Z" fill="white"/>
<path d="M65.4056 30.9707C65.4056 30.9707 43.0875 37.8685 31.4432 46.7287C23.4462 52.8136 19.3295 56.9849 13.4687 65.1616C6.19134 75.3147 0 94.1971 0 94.1971V30.9707H65.4056Z" fill="white"/>
<path d="M282.75 94.1971C282.75 94.1971 275.614 72.6226 266.449 61.3662C260.154 53.6357 255.839 49.6561 247.381 43.9907C236.878 36.9558 217.344 30.9707 217.344 30.9707L282.75 30.9707V94.1971Z" fill="white"/>
<path d="M553.051 206.188C535.649 208.888 515.833 196.01 513.878 178.425C510.197 146.258 546.964 124.642 576.235 123.215C558.396 146.491 570.536 145.368 577.55 162.851C584.965 181.26 572.961 203.1 553.051 206.188Z" fill="white"/>
<path d="M472.516 165.835C487.236 156.39 492.966 133.854 482.25 119.581C462.726 93.4043 420.624 101.608 398.02 119.795C427.289 125.26 417.546 132.41 424.456 149.934C431.709 168.404 455.676 176.642 472.516 165.835Z" fill="white"/>
<path d="M1190.72 232.279C1206.19 237.441 1224.23 230 1231.96 221.956C1239.69 213.912 1241.79 204.215 1242.35 195.001C1244.94 152.272 1197.91 124.224 1160.05 123.37C1183.92 152.831 1199.27 157.09 1184.99 167.21C1162.37 183.243 1156.99 221.021 1190.72 232.279Z" fill="white"/>
</svg>
